# xmcd
#
# Track frame offsets: 
#        150
#        12792
#        27352
#        43042
#        67277
#        77647
#        101782
#        118802
#        133685
#        145457
#        157420
#        167175
#
# Disc length: 2605 seconds
#
# Revision: 0
# Processed by: cddbd v1.5.2PL0 Copyright (c) Steve Scherf et al.
# Submitted via: ExactAudioCopy v0.99pb5
#
DISCID=b30a2b0c
DTITLE=The Animals - Animalism (US)
DYEAR=1966
DGENRE=Blues
TTITLE0=All Night Long
TTITLE1=Shake
TTITLE2=The Other Side Of This Life 
TTITLE3=Rock Me Baby
TTITLE4=Licille
TTITLE5=Smoke Stack Lightning
TTITLE6=Hey Gyp
TTITLE7=Hit The Road, Jack
TTITLE8=Outcast
TTITLE9=Lousiana Blues
TTITLE10=That's All I Am To You
TTITLE11=Going Down Slow
EXTD=
EXTT0=
EXTT1=
EXTT2=
EXTT3=
EXTT4=
EXTT5=
EXTT6=
EXTT7=
EXTT8=
EXTT9=
EXTT10=
EXTT11=
PLAYORDER=
